<?xml version="1.0" encoding="utf-8"?>
<!-- Generator: Adobe Illustrator 23.0.3, SVG Export Plug-In . SVG Version: 6.00 Build 0)  -->
<svg version="1.1" id="图层_1" xmlns="http://www.w3.org/2000/svg" xmlns:xlink="http://www.w3.org/1999/xlink" x="0px" y="0px"
	 viewBox="0 0 300.5 79.4" style="enable-background:new 0 0 300.5 79.4;" xml:space="preserve">
<style type="text/css">
	.st0{fill:#461B6B;}
</style>
<g>
	<g>
		<g>
			<g>
				<g>
					<path class="st0" d="M98.9,60.8h2.9c4.3,0,7.8,2.3,7.8,6.9c0,4.8-3.5,7.1-7.9,7.1h-2.8V60.8z M100.6,73.2h0.6
						c3.6,0,6.6-1.3,6.6-5.4s-3.1-5.4-6.6-5.4h-0.6V73.2z"/>
					<path class="st0" d="M115.8,74.8h-1.7v-14h1.7V74.8z"/>
					<path class="st0" d="M123.2,71.3l-1.6,3.5h-1.9l6.7-14.6l6.7,14.6h-1.9l-1.6-3.5H123.2z M126.4,64l-2.5,5.7h5L126.4,64z"/>
					<path class="st0" d="M139.4,65.6L139.4,65.6l-1.7,9.2h-1.8l2.9-14.6l4.8,11l4.8-11l2.9,14.6h-1.8l-1.6-9.2l0,0l-4.2,9.5
						L139.4,65.6z"/>
					<path class="st0" d="M169.2,67.8c0,4.2-3.3,7.3-7.3,7.3s-7.3-3.1-7.3-7.3c0-4,3.3-7.3,7.3-7.3
						C165.9,60.5,169.2,63.8,169.2,67.8z M167.5,67.8c0-3.1-2.3-5.7-5.6-5.7s-5.6,2.6-5.6,5.7c0,3.2,2.6,5.7,5.6,5.7
						S167.5,71,167.5,67.8z"/>
					<path class="st0" d="M173.5,60.2l10.5,11V60.8h1.7v14.6l-10.5-11v10.4h-1.7V60.2z"/>
					<path class="st0" d="M190.9,60.8h2.9c4.3,0,7.8,2.3,7.8,6.9c0,4.8-3.5,7.1-7.9,7.1h-2.8V60.8z M192.6,73.2h0.6
						c3.6,0,6.6-1.3,6.6-5.4s-3.1-5.4-6.6-5.4h-0.6V73.2z"/>
				</g>
				<g>
					<path class="st0" d="M193.9,40H183V11c0-1.2,0.5-2.2,1.2-2.5V8.4H178v0.1c0.7,0.3,1.2,1.3,1.2,2.5v29.7c0,1.2-0.5,2.2-1.2,2.5
						v0.1h19v-4.8h-0.1C196.5,39.4,195.3,40,193.9,40z"/>
					<path class="st0" d="M295,38.5c-0.4,0.9-1.6,1.5-3,1.5h-10.9V27.5h7.8c1.2,0,2.2,0.5,2.5,1.2h0.1v-5.8h-0.1
						c-0.3,0.7-1.3,1.2-2.5,1.2h-7.8V11.8h10.6c1.4,0,2.6,0.6,3,1.5h0.1V8.4h-18.7v0.1c0.7,0.3,1.2,1.3,1.2,2.5v29.7
						c0,1.2-0.5,2.2-1.2,2.5v0.1h19v-4.8H295z"/>
					<path class="st0" d="M61.8,8.4v0.1C62.5,8.8,63,9.8,63,11v29.7c0,1.2-0.5,2.2-1.2,2.5v0.1H68v-0.1c-0.7-0.3-1.2-1.3-1.2-2.5
						l0,0V27.5h7.8c1.2,0,2.2,0.5,2.5,1.2h0.1v-5.8H77c-0.3,0.7-1.3,1.2-2.5,1.2h-7.8V11.8h10.6c1.4,0,2.6,0.6,3,1.5h0.1V8.4H61.8z"
						/>
					<path class="st0" d="M5.4,8.4v0.1C6.1,8.8,6.6,9.8,6.6,11v29.7c0,1.2-0.5,2.2-1.2,2.5v0.1h6.2v-0.1c-0.7-0.3-1.2-1.3-1.2-2.5
						V11.1c0-1.2,0.5-2.2,1.2-2.5V8.4H5.4z"/>
					<path class="st0" d="M89.9,8.4v0.1c0.7,0.3,1.2,1.3,1.2,2.5v29.7c0,1.2-0.5,2.2-1.2,2.5v0.1h6.2v-0.1c-0.7-0.3-1.2-1.3-1.2-2.5
						V11.1c0-1.2,0.5-2.2,1.2-2.5V8.4H89.9z"/>
					<path class="st0" d="M146.3,8.4v0.1c0.7,0.3,1.2,1.3,1.2,2.5v29.7c0,1.2-0.5,2.2-1.2,2.5v0.1h6.2v-0.1
						c-0.7-0.3-1.2-1.3-1.2-2.5V11.1c0-1.2,0.5-2.2,1.2-2.5V8.4H146.3z"/>
					<path class="st0" d="M44.1,8.4v0.1c0.7,0.3,1.2,1.3,1.2,2.5v22.7L24.4,8h-0.1v32.7c0,1.2-0.5,2.2-1.2,2.5v0.1h6.2v-0.1
						c-0.7-0.3-1.2-1.3-1.2-2.5V18L49,43.8l0,0V11.1c0-1.2,0.5-2.2,1.2-2.5V8.4H44.1z"/>
					<path class="st0" d="M128.6,8.4v0.1c0.7,0.3,1.2,1.3,1.2,2.5v22.7L109,8h-0.1v32.7c0,1.2-0.5,2.2-1.2,2.5v0.1h6.2v-0.1
						c-0.7-0.3-1.2-1.3-1.2-2.5V18l20.9,25.8h0.1V11.1c0-1.2,0.5-2.2,1.2-2.5V8.4H128.6z"/>
					<path class="st0" d="M265.4,8.4v0.1c0.6,0.3,0.6,1.3,0,2.5c-0.1,0.1-0.1,0.3-0.2,0.4L255.1,36H255l-11-24.6
						c-0.1-0.1-0.1-0.3-0.2-0.4c-0.6-1.2-0.5-2.2,0-2.5V8.4H237v0.1c0.9,0.3,1.9,1.3,2.4,2.5l15.8,33.1h0.1L269.6,11l0,0
						c0.6-1.2,1.6-2.2,2.4-2.5V8.4H265.4z"/>
					<g>
						<g>
							<g>
								<polygon class="st0" points="211.2,12.2 208.8,10.2 210.7,13.1 211.6,14.5 212,12.9 212.7,9.5 								"/>
								<polygon class="st0" points="211.6,4.1 210.1,6.2 210.1,6.2 210.1,6.2 208.1,4.7 207.3,4.9 207.7,7 208.7,8.2 211,10.9 
									211,10.9 211,10.9 212.2,7.6 212.7,6.1 212.3,4 								"/>
							</g>
							<g>
								<polygon class="st0" points="207.9,16.9 205.9,19.2 208.8,17.4 210.2,16.5 208.6,16.1 205.2,15.4 								"/>
								<polygon class="st0" points="199.8,16.5 201.9,18 201.9,18 201.9,18 200.4,20 200.6,20.8 202.7,20.4 203.9,19.4 206.6,17.1 
									206.6,17.1 206.6,17.1 203.3,15.9 201.8,15.4 199.7,15.7 								"/>
							</g>
							<g>
								<polygon class="st0" points="208.6,13.9 205.5,14.1 208.9,14.8 210.5,15.2 209.6,13.8 207.7,10.9 								"/>
								<polygon class="st0" points="203.1,7.8 203.6,10.4 203.6,10.4 203.6,10.4 201.1,10.8 200.7,11.4 202.4,12.7 204,12.8 
									207.5,13.1 207.5,13.1 207.5,13.1 206,9.9 205.4,8.5 203.6,7.3 								"/>
							</g>
							<g>
								<polygon class="st0" points="214.2,12.9 214,9.8 213.3,13.2 212.9,14.8 214.3,13.9 217.2,12 								"/>
								<polygon class="st0" points="220.3,7.4 217.7,7.9 217.7,7.9 217.7,7.9 217.3,5.4 216.7,5 215.4,6.7 215.3,8.3 215,11.8 
									215,11.8 215,11.8 218.2,10.3 219.6,9.6 220.8,7.9 								"/>
							</g>
						</g>
						<path class="st0" d="M222.3,8.1l-2.4,3.4c7.2,0.9,12.7,7,12.7,14.4c0,8-6.5,14.5-14.5,14.5s-14.5-6.5-14.5-14.5
							c0-1.5,0.2-3,0.7-4.4l-4,0.7c-0.3,1.2-0.4,2.4-0.4,3.7c0,10.1,8.2,18.2,18.2,18.2c10.1,0,18.2-8.2,18.2-18.2
							C236.3,17.3,230.3,10,222.3,8.1z"/>
					</g>
				</g>
			</g>
		</g>
	</g>
</g>
</svg>
